<?xml version="1.0" standalone="no"?>
<!DOCTYPE svg PUBLIC "-//W3C//DTD SVG 20010904//EN"
 "http://www.w3.org/TR/2001/REC-SVG-20010904/DTD/svg10.dtd">
<svg version="1.0" xmlns="http://www.w3.org/2000/svg"
 width="70px" height="72px" viewBox="0 0 800.000000 600.000000"
 preserveAspectRatio="xMidYMid meet">
<metadata>
Created by potrace 1.15, written by Peter Selinger 2001-2017
</metadata>
<g transform="translate(0.000000,600.000000) scale(0.100000,-0.100000)"
fill="#000000" stroke="none">
<path d="M4106 5555 c-10 -15 -13 -31 -9 -39 4 -7 62 -86 128 -175 260 -350
371 -495 385 -502 269 -131 448 -272 629 -493 169 -206 303 -529 342 -821 17
-128 7 -405 -19 -525 -50 -229 -175 -525 -252 -595 -30 -27 -25 -42 23 -71 23
-15 65 -46 92 -68 28 -23 61 -48 74 -57 l24 -15 -58 -80 c-266 -360 -654 -616
-1100 -724 -107 -26 -298 -50 -395 -50 -107 0 -294 25 -411 55 -375 96 -715
301 -961 579 -44 50 -84 98 -89 107 -7 15 6 29 82 85 49 37 97 80 105 97 15
28 14 31 -7 61 -97 128 -183 291 -239 451 -103 293 -118 644 -40 950 117 462
412 841 824 1059 56 30 121 61 146 70 34 13 53 29 80 68 35 52 303 434 379
541 38 53 40 59 27 80 -13 18 -24 22 -70 22 -54 0 -54 -1 -88 -50 -19 -28 -90
-129 -158 -225 -68 -96 -148 -211 -178 -255 -76 -111 -72 -107 -187 -164 -417
-208 -718 -547 -878 -991 -116 -319 -123 -736 -19 -1072 52 -168 171 -403 245
-485 11 -13 19 -25 16 -27 -2 -2 -30 -25 -62 -50 -68 -55 -58 -60 -130 69 -95
171 -166 365 -207 564 -106 530 25 1093 358 1529 35 46 62 85 60 87 -2 1 -35
5 -74 9 -80 7 -72 12 -161 -104 -258 -337 -402 -850 -365 -1298 28 -338 133
-658 299 -912 l50 -75 -36 -27 c-20 -15 -57 -43 -83 -63 l-47 -36 -49 73
c-217 322 -355 754 -375 1173 l-2 50 -55 1 c-30 1 -66 -1 -79 -4 l-24 -5 6
-126 c15 -300 95 -599 241 -890 177 -356 441 -661 772 -893 343 -240 793 -399
1139 -402 l129 -1 61 81 c33 44 69 93 80 108 l20 27 71 -93 c39 -51 73 -101
77 -110 9 -24 82 -24 234 2 256 44 432 100 658 210 297 146 548 341 777 605
185 213 359 532 448 819 58 189 99 431 100 584 0 78 -1 82 -22 83 -13 0 -48 2
-78 2 l-55 2 -7 -100 c-24 -359 -117 -680 -290 -993 -28 -50 -55 -92 -60 -92
-5 0 -45 25 -88 56 l-79 57 49 91 c307 570 317 1254 27 1829 -64 127 -191 324
-228 354 -20 15 -169 28 -169 14 0 -6 28 -48 63 -94 292 -383 436 -887 383
-1343 -24 -207 -66 -387 -116 -499 -10 -22 -34 -78 -54 -125 -20 -47 -45 -96
-55 -109 l-19 -25 -56 43 -57 42 20 32 c27 44 93 178 124 252 41 99 76 219 99
343 28 153 30 438 4 582 -69 382 -234 691 -508 955 -127 123 -228 198 -368
275 -52 29 -103 59 -113 68 -10 9 -127 164 -260 344 -212 289 -244 328 -266
327 -14 -1 -38 1 -52 5 -21 6 -29 3 -43 -19z m1636 -3528 c26 -17 48 -37 48
-43 0 -16 -75 -111 -168 -214 -180 -199 -413 -376 -661 -500 -185 -92 -462
-186 -608 -206 l-49 -6 -78 97 c-43 54 -80 103 -82 110 -4 9 18 14 73 19 331
30 700 173 975 378 109 82 294 262 375 366 l65 83 32 -26 c17 -14 52 -40 78
-58z m-3235 -138 c190 -196 343 -308 568 -419 201 -98 410 -158 650 -186 83
-10 151 -18 153 -20 3 -2 -148 -213 -157 -218 -4 -3 -51 4 -106 14 -510 91
-990 364 -1328 754 l-59 69 43 36 c41 35 111 89 116 90 2 1 56 -54 120 -120z"/>
<path d="M3728 5033 c-29 -3 -37 -9 -43 -30 -3 -14 -2 -29 2 -34 4 -4 64 -3
133 3 69 5 168 6 220 2 52 -3 132 -8 177 -9 75 -3 83 -1 89 17 9 29 -2 35 -89
47 -73 10 -405 13 -489 4z"/>
<path d="M2085 4803 c-56 -60 -207 -296 -273 -429 -79 -158 -107 -231 -166
-429 -19 -62 -64 -306 -67 -362 -2 -24 1 -46 5 -50 4 -4 39 -8 78 -8 l72 0 17
120 c39 265 129 539 251 765 53 98 175 281 232 348 26 30 46 58 46 63 0 5 -38
9 -85 9 -79 0 -86 -2 -110 -27z"/>
<path d="M5670 4819 c0 -6 20 -33 44 -60 176 -195 371 -588 442 -889 23 -95
54 -280 54 -318 l0 -33 77 5 c42 3 79 10 83 16 15 24 -41 326 -89 480 -39 127
-82 232 -148 365 -60 121 -200 340 -258 404 l-37 41 -84 0 c-55 0 -84 -4 -84
-11z"/>
</g>
</svg>
